<?xml version="1.0" encoding="utf-8"?>
<!-- Generator: Adobe Illustrator 27.3.1, SVG Export Plug-In . SVG Version: 6.00 Build 0)  -->
<svg version="1.1" id="Layer_1" xmlns="http://www.w3.org/2000/svg" xmlns:xlink="http://www.w3.org/1999/xlink" x="0px" y="0px"
	 viewBox="0 0 597.4 597.4" style="enable-background:new 0 0 597.4 597.4;" xml:space="preserve">
<style type="text/css">
	.st0{fill:#FFFFFF;}
	.st1{fill:#41A64B;}
</style>
<path class="st0" d="M121.6,280.4c5.1,1.1,9.3,3.7,12.4,7.7c3.1,4,4.7,8.5,4.7,13.7c0,7.4-2.6,13.3-7.8,17.7
	c-5.1,4.3-12.4,6.5-21.6,6.5H67.8v-88.9h40c9,0,16.1,2.1,21.1,6.2c5.1,4.1,7.7,9.7,7.7,16.8c0,5.2-1.4,9.6-4.2,13
	C129.8,276.6,126.2,279.1,121.6,280.4z M89.5,273.1h14.2c3.5,0,6.2-0.8,8.1-2.3c1.9-1.6,2.9-3.9,2.9-7s-1-5.4-2.9-7
	c-1.9-1.6-4.6-2.4-8.1-2.4H89.5V273.1z M105.4,308.5c3.6,0,6.4-0.8,8.4-2.4c2-1.7,3-4.1,3-7.2s-1.1-5.6-3.2-7.3
	c-2-1.8-4.9-2.7-8.5-2.7H89.5v19.6H105.4z"/>
<path class="st0" d="M218.2,289.5c0,2-0.1,4.1-0.4,6.3h-49c0.3,4.4,1.7,7.8,4.2,10.1c2.5,2.3,5.6,3.4,9.2,3.4
	c5.4,0,9.2-2.3,11.3-6.8h23c-1.2,4.6-3.3,8.8-6.5,12.5c-3,3.7-6.9,6.6-11.5,8.7c-4.6,2.1-9.8,3.2-15.6,3.2c-6.9,0-13.1-1.5-18.5-4.4
	c-5.4-3-9.6-7.2-12.7-12.7c-3-5.5-4.6-11.9-4.6-19.2c0-7.3,1.5-13.8,4.4-19.2c3-5.5,7.3-9.7,12.7-12.7c5.4-3,11.6-4.4,18.6-4.4
	c6.8,0,12.9,1.4,18.2,4.3c5.3,2.9,9.4,7,12.4,12.3C216.6,276.2,218.2,282.4,218.2,289.5z M196,283.8c0-3.7-1.3-6.7-3.8-8.9
	c-2.5-2.2-5.7-3.3-9.5-3.3c-3.6,0-6.7,1.1-9.2,3.2c-2.4,2.1-4,5.1-4.6,9H196z"/>
<path class="st0" d="M269.2,307.6V326h-11c-7.8,0-14-1.9-18.4-5.7c-4.4-3.9-6.6-10.2-6.6-18.9v-28.1h-8.6v-18h8.6v-17.2h21.6v17.2
	h14.2v18h-14.2v28.4c0,2.1,0.5,3.6,1.5,4.6c1,0.9,2.7,1.4,5.1,1.4H269.2z"/>
<path class="st0" d="M321,307.6V326h-11c-7.8,0-14-1.9-18.4-5.7c-4.4-3.9-6.6-10.2-6.6-18.9v-28.1h-8.6v-18h8.6v-17.2h21.6v17.2
	h14.2v18h-14.2v28.4c0,2.1,0.5,3.6,1.5,4.6c1,0.9,2.7,1.4,5.1,1.4H321z"/>
<path class="st0" d="M344.2,248c-3.8,0-6.9-1.1-9.4-3.3c-2.4-2.3-3.5-5.1-3.5-8.4c0-3.4,1.2-6.2,3.5-8.4c2.4-2.3,5.6-3.4,9.4-3.4
	c3.7,0,6.8,1.1,9.1,3.4c2.4,2.2,3.7,5,3.7,8.4c0,3.3-1.2,6.1-3.7,8.4C351,246.9,347.9,248,344.2,248z M355,255.3V326h-21.6v-70.6
	H355z"/>
<path class="st0" d="M414,254.6c8.3,0,14.9,2.7,19.7,8.1c5,5.3,7.5,12.7,7.5,22V326h-21.5v-38.4c0-4.7-1.2-8.4-3.7-11
	c-2.4-2.6-5.7-3.9-9.9-3.9c-4.1,0-7.4,1.3-9.9,3.9c-2.4,2.6-3.7,6.3-3.7,11V326H371v-70.6h21.6v9.4c2.2-3.1,5.1-5.6,8.9-7.3
	C405.2,255.5,409.4,254.6,414,254.6z"/>
<path class="st0" d="M483.4,254.3c5,0,9.3,1,13,3c3.8,2,6.7,4.7,8.7,8v-10h21.6v69.5v1c0,20.3-1.3,36.2-3.9,41.4
	c-2.5,5.3-6.5,9.5-11.8,12.7c-5.2,3.1-11.8,4.7-19.6,4.7c-10.5,0-18.9-2.5-25.4-7.5c-6.5-4.9-10.2-11.6-11.1-20h21.4
	c0.7,2.7,2.3,4.8,4.8,6.3c2.5,1.6,5.7,2.4,9.4,2.4c4.5,0,8-1.3,10.6-3.9c2.7-2.5,4.1-16.6,4.1-36.1v-1v-9c-2.1,3.3-5,6-8.7,8.1
	c-3.7,2-8.1,3-13,3c-5.8,0-11.1-1.5-15.8-4.4c-4.7-3-8.5-7.3-11.3-12.8c-2.7-5.6-4-12-4-19.2c0-7.3,1.4-13.6,4-19.1
	c2.8-5.5,6.5-9.7,11.3-12.7C472.3,255.8,477.6,254.3,483.4,254.3z M505.2,290.7c0-5.4-1.5-9.7-4.6-12.8c-3-3.1-6.6-4.7-10.9-4.7
	c-4.3,0-8,1.6-11,4.7c-3,3-4.4,7.3-4.4,12.7c0,5.4,1.5,9.7,4.4,12.9c3,3.1,6.7,4.7,11,4.7c4.3,0,7.9-1.6,10.9-4.7
	C503.6,300.3,505.2,296.1,505.2,290.7z"/>
<path class="st1" d="M535,597.4H62.4C27.9,597.4,0,569.4,0,535V62.4C0,27.9,27.9,0,62.4,0H535c34.5,0,62.4,27.9,62.4,62.4V535
	C597.4,569.4,569.4,597.4,535,597.4z"/>
<path class="st0" d="M121.6,280.4c5.1,1.1,9.3,3.7,12.4,7.7c3.1,4,4.7,8.5,4.7,13.7c0,7.4-2.6,13.3-7.8,17.7
	c-5.1,4.3-12.4,6.5-21.6,6.5H67.8v-88.9h40c9,0,16.1,2.1,21.1,6.2c5.1,4.1,7.7,9.7,7.7,16.8c0,5.2-1.4,9.6-4.2,13
	C129.8,276.6,126.2,279.1,121.6,280.4z M89.5,273.1h14.2c3.5,0,6.2-0.8,8.1-2.3c1.9-1.6,2.9-3.9,2.9-7s-1-5.4-2.9-7
	c-1.9-1.6-4.6-2.4-8.1-2.4H89.5V273.1z M105.4,308.5c3.6,0,6.4-0.8,8.4-2.4c2-1.7,3-4.1,3-7.2s-1.1-5.6-3.2-7.3
	c-2-1.8-4.9-2.7-8.5-2.7H89.5v19.6H105.4z"/>
<path class="st0" d="M218.2,289.5c0,2-0.1,4.1-0.4,6.3h-49c0.3,4.4,1.7,7.8,4.2,10.1c2.5,2.3,5.6,3.4,9.2,3.4
	c5.4,0,9.2-2.3,11.3-6.8h23c-1.2,4.6-3.3,8.8-6.5,12.5c-3,3.7-6.9,6.6-11.5,8.7c-4.6,2.1-9.8,3.2-15.6,3.2c-6.9,0-13.1-1.5-18.5-4.4
	c-5.4-3-9.6-7.2-12.7-12.7c-3-5.5-4.6-11.9-4.6-19.2c0-7.3,1.5-13.8,4.4-19.2c3-5.5,7.3-9.7,12.7-12.7c5.4-3,11.6-4.4,18.6-4.4
	c6.8,0,12.9,1.4,18.2,4.3c5.3,2.9,9.4,7,12.4,12.3C216.6,276.2,218.2,282.4,218.2,289.5z M196,283.8c0-3.7-1.3-6.7-3.8-8.9
	c-2.5-2.2-5.7-3.3-9.5-3.3c-3.6,0-6.7,1.1-9.2,3.2c-2.4,2.1-4,5.1-4.6,9H196z"/>
<path class="st0" d="M269.2,307.6V326h-11c-7.8,0-14-1.9-18.4-5.7c-4.4-3.9-6.6-10.2-6.6-18.9v-28.1h-8.6v-18h8.6v-17.2h21.6v17.2
	h14.2v18h-14.2v28.4c0,2.1,0.5,3.6,1.5,4.6c1,0.9,2.7,1.4,5.1,1.4H269.2z"/>
<path class="st0" d="M321,307.6V326h-11c-7.8,0-14-1.9-18.4-5.7c-4.4-3.9-6.6-10.2-6.6-18.9v-28.1h-8.6v-18h8.6v-17.2h21.6v17.2
	h14.2v18h-14.2v28.4c0,2.1,0.5,3.6,1.5,4.6c1,0.9,2.7,1.4,5.1,1.4H321z"/>
<path class="st0" d="M344.2,248c-3.8,0-6.9-1.1-9.4-3.3c-2.4-2.3-3.5-5.1-3.5-8.4c0-3.4,1.2-6.2,3.5-8.4c2.4-2.3,5.6-3.4,9.4-3.4
	c3.7,0,6.8,1.1,9.1,3.4c2.4,2.2,3.7,5,3.7,8.4c0,3.3-1.2,6.1-3.7,8.4C351,246.9,347.9,248,344.2,248z M355,255.3V326h-21.6v-70.6
	H355z"/>
<path class="st0" d="M414,254.6c8.3,0,14.9,2.7,19.7,8.1c5,5.3,7.5,12.7,7.5,22V326h-21.5v-38.4c0-4.7-1.2-8.4-3.7-11
	c-2.4-2.6-5.7-3.9-9.9-3.9c-4.1,0-7.4,1.3-9.9,3.9c-2.4,2.6-3.7,6.3-3.7,11V326H371v-70.6h21.6v9.4c2.2-3.1,5.1-5.6,8.9-7.3
	C405.2,255.5,409.4,254.6,414,254.6z"/>
<path class="st0" d="M483.4,254.3c5,0,9.3,1,13,3c3.8,2,6.7,4.7,8.7,8v-10h21.6v69.5v1c0,20.3-1.3,36.2-3.9,41.4
	c-2.5,5.3-6.5,9.5-11.8,12.7c-5.2,3.1-11.8,4.7-19.6,4.7c-10.5,0-18.9-2.5-25.4-7.5c-6.5-4.9-10.2-11.6-11.1-20h21.4
	c0.7,2.7,2.3,4.8,4.8,6.3c2.5,1.6,5.7,2.4,9.4,2.4c4.5,0,8-1.3,10.6-3.9c2.7-2.5,4.1-16.6,4.1-36.1v-1v-9c-2.1,3.3-5,6-8.7,8.1
	c-3.7,2-8.1,3-13,3c-5.8,0-11.1-1.5-15.8-4.4c-4.7-3-8.5-7.3-11.3-12.8c-2.7-5.6-4-12-4-19.2c0-7.3,1.4-13.6,4-19.1
	c2.8-5.5,6.5-9.7,11.3-12.7C472.3,255.8,477.6,254.3,483.4,254.3z M505.2,290.7c0-5.4-1.5-9.7-4.6-12.8c-3-3.1-6.6-4.7-10.9-4.7
	c-4.3,0-8,1.6-11,4.7c-3,3-4.4,7.3-4.4,12.7c0,5.4,1.5,9.7,4.4,12.9c3,3.1,6.7,4.7,11,4.7c4.3,0,7.9-1.6,10.9-4.7
	C503.6,300.3,505.2,296.1,505.2,290.7z"/>
<g>
	<path d="M90,373.2c-0.1,2.2-0.7,4.2-1.8,5.9c-1.1,1.7-2.6,3-4.6,4c-2,0.9-4.3,1.4-6.8,1.4c-4.2,0-7.5-1.4-9.9-4.1
		c-2.4-2.7-3.6-6.6-3.6-11.6v-1.6c0-3.1,0.5-5.9,1.6-8.2c1.1-2.4,2.7-4.2,4.7-5.4c2.1-1.3,4.4-1.9,7.1-1.9c3.9,0,7,1,9.4,3.1
		c2.4,2,3.7,4.9,4,8.4h-7.7c-0.1-1.9-0.5-3.3-1.5-4.2s-2.3-1.3-4.2-1.3c-1.9,0-3.3,0.7-4.2,2.2s-1.4,3.7-1.4,6.9v2.3
		c0,3.4,0.4,5.9,1.3,7.3c0.9,1.5,2.3,2.2,4.4,2.2c1.8,0,3.1-0.4,4.1-1.3s1.4-2.2,1.5-4H90z"/>
	<path d="M119.2,378.1h-10.6l-1.8,6h-8.2l11.7-32h7.3l11.8,32h-8.3L119.2,378.1z M110.5,372.1h6.9l-3.4-11.1L110.5,372.1z"/>
	<path d="M146.8,378.1h13.4v5.9h-21.1v-32h7.7V378.1z"/>
	<path d="M195.4,373.2c-0.1,2.2-0.7,4.2-1.8,5.9c-1.1,1.7-2.6,3-4.6,4c-2,0.9-4.3,1.4-6.8,1.4c-4.2,0-7.5-1.4-9.9-4.1
		c-2.4-2.7-3.6-6.6-3.6-11.6v-1.6c0-3.1,0.5-5.9,1.6-8.2c1.1-2.4,2.7-4.2,4.7-5.4c2.1-1.3,4.4-1.9,7.1-1.9c3.9,0,7,1,9.4,3.1
		c2.4,2,3.7,4.9,4,8.4h-7.7c-0.1-1.9-0.5-3.3-1.5-4.2s-2.3-1.3-4.2-1.3c-1.9,0-3.3,0.7-4.2,2.2s-1.4,3.7-1.4,6.9v2.3
		c0,3.4,0.4,5.9,1.3,7.3c0.9,1.5,2.3,2.2,4.4,2.2c1.8,0,3.1-0.4,4.1-1.3s1.4-2.2,1.5-4H195.4z"/>
	<path d="M231.6,352.1V373c0,2.4-0.5,4.4-1.5,6.2c-1,1.7-2.5,3.1-4.4,4s-4.1,1.4-6.7,1.4c-3.9,0-7-1-9.2-3s-3.4-4.8-3.4-8.3v-21.1
		h7.8v21.2c0.1,3.5,1.7,5.3,4.9,5.3c1.6,0,2.8-0.4,3.6-1.3s1.2-2.3,1.2-4.3v-20.9H231.6z"/>
	<path d="M251.5,378.1H265v5.9h-21.1v-32h7.7V378.1z"/>
	<path d="M294.2,378.1h-10.6l-1.8,6h-8.2l11.7-32h7.3l11.8,32h-8.3L294.2,378.1z M285.5,372.1h6.9l-3.4-11.1L285.5,372.1z"/>
	<path d="M336.6,358H327v26h-7.7v-26h-9.4v-6h26.7V358z"/>
	<path d="M373.8,368.7c0,3.1-0.6,5.9-1.7,8.3s-2.8,4.3-4.9,5.5c-2.1,1.3-4.6,1.9-7.3,1.9s-5.1-0.6-7.3-1.9c-2.1-1.3-3.8-3-4.9-5.4
		c-1.2-2.3-1.8-5-1.9-8v-1.8c0-3.1,0.6-5.9,1.7-8.3c1.1-2.4,2.8-4.2,4.9-5.5c2.1-1.3,4.6-2,7.3-2c2.7,0,5.1,0.6,7.3,1.9
		s3.8,3.1,5,5.5c1.2,2.4,1.8,5.1,1.8,8.2V368.7z M365.9,367.4c0-3.2-0.5-5.6-1.6-7.2c-1.1-1.6-2.6-2.5-4.6-2.5
		c-3.9,0-5.9,2.9-6.1,8.7l0,2.4c0,3.1,0.5,5.5,1.6,7.2s2.6,2.5,4.6,2.5c1.9,0,3.4-0.8,4.5-2.5c1.1-1.7,1.6-4,1.6-7.1V367.4z"/>
	<path d="M397.1,372.7h-4.2v11.3h-7.7v-32h12.6c3.8,0,6.8,0.8,8.9,2.5s3.2,4.1,3.2,7.1c0,2.2-0.5,4.1-1.4,5.5
		c-0.9,1.5-2.3,2.6-4.2,3.6l6.7,12.9v0.3h-8.3L397.1,372.7z M392.9,366.8h4.9c1.5,0,2.6-0.4,3.3-1.2c0.7-0.8,1.1-1.8,1.1-3.2
		c0-1.4-0.4-2.5-1.1-3.2s-1.8-1.2-3.3-1.2h-4.9V366.8z"/>
	<path d="M438.4,375.6c0-1.1-0.4-2-1.2-2.6c-0.8-0.6-2.2-1.3-4.2-2s-3.6-1.3-4.9-2c-4.1-2-6.2-4.8-6.2-8.4c0-1.8,0.5-3.3,1.5-4.7
		c1-1.4,2.5-2.4,4.4-3.2c1.9-0.8,4-1.1,6.4-1.1c2.3,0,4.4,0.4,6.2,1.2c1.8,0.8,3.2,2,4.3,3.5c1,1.5,1.5,3.2,1.5,5.2h-7.7
		c0-1.3-0.4-2.3-1.2-3c-0.8-0.7-1.9-1.1-3.2-1.1c-1.4,0-2.5,0.3-3.3,0.9c-0.8,0.6-1.2,1.4-1.2,2.3c0,0.8,0.4,1.6,1.3,2.2
		c0.9,0.7,2.4,1.4,4.6,2.1c2.2,0.7,4,1.5,5.4,2.3c3.5,2,5.2,4.7,5.2,8.2c0,2.8-1.1,5-3.2,6.6s-5,2.4-8.7,2.4c-2.6,0-4.9-0.5-7-1.4
		c-2.1-0.9-3.7-2.2-4.7-3.8c-1.1-1.6-1.6-3.5-1.6-5.6h7.7c0,1.7,0.4,3,1.3,3.8c0.9,0.8,2.3,1.2,4.3,1.2c1.3,0,2.3-0.3,3-0.8
		C438.1,377.3,438.4,376.5,438.4,375.6z"/>
</g>
</svg>
